<?xml version="1.0" encoding="UTF-8" standalone="no"?>
<svg xmlns:rdf="http://www.w3.org/1999/02/22-rdf-syntax-ns#" xmlns="http://www.w3.org/2000/svg" xml:space="preserve" height="200" viewBox="0 0 200 200" width="200" version="1.1" y="0px" x="0px" xmlns:cc="http://creativecommons.org/ns#" xmlns:dc="http://purl.org/dc/elements/1.1/" enable-background="new 0 0 200 200"><g fill="#f00" transform="matrix(4.25 0 0 4.26 -2.12 -2.13)"><path d="m24 13.9c-4.5 0-8.4 5.9-9 13.2h18c-0.6-7.4-4.5-13.2-9-13.2z"/><path d="m24 0.5c-13.2 0-23.5 19.8-23.5 45 0 1.1 0.9 2 2 2h43.1c1.1 0 2-0.9 2-2-0.1-25.2-10.4-45-23.6-45zm9.8 41.7h-19.6c-1.1 0-2-0.9-2-2s0.9-2 2-2h19.5c1.1 0 2 0.9 2 2s-0.9 2-1.9 2zm1.3-11.2h-22.2c-1.1 0-2-0.9-2-2 0-10.7 5.7-19 13-19s13 8.4 13 19c0.1 1.1-0.8 2-1.8 2z"/></g></svg>
